<svg xmlns="http://www.w3.org/2000/svg" viewBox="0 0 900 780"><rect width="900" height="780" rx="34" fill="#071a33"/><text x="450" y="72" text-anchor="middle" font-family="Arial" font-size="24" font-weight="700" fill="#8db8ff">COUNTY MODERNIZATION</text><g font-family="Arial"><g transform="translate(90 120)"><rect width="720" height="115" rx="24" fill="#0d2d56" stroke="#315a87"/><circle cx="70" cy="58" r="29" fill="#1f5dd8"/><text x="70" y="67" text-anchor="middle" font-size="24" font-weight="700" fill="#fff">1</text><text x="125" y="51" font-size="29" font-weight="700" fill="#fff">Define the service</text><text x="125" y="83" font-size="20" fill="#b7c8da">Dataset · users · policy</text></g><path d="M450 246v34" stroke="#ef3340" stroke-width="6"/><g transform="translate(90 292)"><rect width="720" height="115" rx="24" fill="#0d2d56" stroke="#315a87"/><circle cx="70" cy="58" r="29" fill="#1f5dd8"/><text x="70" y="67" text-anchor="middle" font-size="24" font-weight="700" fill="#fff">2</text><text x="125" y="51" font-size="29" font-weight="700" fill="#fff">Connect official systems</text><text x="125" y="83" font-size="20" fill="#b7c8da">Assessor · GIS · tax · permits</text></g><path d="M450 418v34" stroke="#ef3340" stroke-width="6"/><g transform="translate(90 464)"><rect width="720" height="115" rx="24" fill="#0d2d56" stroke="#315a87"/><circle cx="70" cy="58" r="29" fill="#1f5dd8"/><text x="70" y="67" text-anchor="middle" font-size="24" font-weight="700" fill="#fff">3</text><text x="125" y="51" font-size="29" font-weight="700" fill="#fff">Launch governed delivery</text><text x="125" y="83" font-size="20" fill="#b7c8da">API · portal · bulk · AI</text></g><path d="M450 590v34" stroke="#ef3340" stroke-width="6"/><g transform="translate(90 636)"><rect width="720" height="110" rx="24" fill="#123e78" stroke="#5d8bc3"/><circle cx="70" cy="55" r="29" fill="#ef3340"/><text x="70" y="64" text-anchor="middle" font-size="24" font-weight="700" fill="#fff">4</text><text x="125" y="49" font-size="29" font-weight="700" fill="#fff">Operate + improve</text><text x="125" y="80" font-size="20" fill="#c7d7e8">Monitor · support · expand</text></g></g></svg>